<svg width="62" height="62" viewBox="0 0 62 62" fill="none" xmlns="http://www.w3.org/2000/svg">
<path d="M30.9999 47.7334C40.2415 47.7334 47.7334 40.2416 47.7334 30.9999C47.7334 21.7582 40.2415 14.2664 30.9999 14.2664C21.7582 14.2664 14.2664 21.7582 14.2664 30.9999C14.2664 40.2416 21.7582 47.7334 30.9999 47.7334Z" fill="#050507"/>
<path d="M30.9998 47.3397C40.024 47.3397 47.3396 40.0241 47.3396 30.9999C47.3396 21.9757 40.024 14.6601 30.9998 14.6601C21.9756 14.6601 14.66 21.9757 14.66 30.9999C14.66 40.0241 21.9756 47.3397 30.9998 47.3397Z" stroke="white" stroke-width="2"/>
<path d="M28.67 27.98V29.35H26.81V35H25.1V29.35H23.24V27.98H28.67ZM37.4782 27.98V35H35.7682V30.79L34.1982 35H32.8182L31.2382 30.78V35H29.5282V27.98H31.5482L33.5182 32.84L35.4682 27.98H37.4782Z" fill="white"/>
<path d="M30.9998 9.01132L34.9371 14.9173H27.0625L30.9998 9.01132Z" fill="white"/>
<path d="M30.9998 52.9885L27.0625 47.0826H34.9371L30.9998 52.9885Z" fill="white"/>
<path d="M52.8518 30.9999L46.9459 34.9372V27.0627L52.8518 30.9999Z" fill="white"/>
<path d="M9.14783 31.3937L15.0538 27.4564V35.331L9.14783 31.3937Z" fill="white"/>
<path d="M34.5387 21.312L33.5889 14.2777L40.6665 17.7297L34.5387 21.312Z" fill="white"/>
<path d="M27.0208 40.7862L28.0932 47.8027L20.9564 44.4748L27.0208 40.7862Z" fill="white"/>
<path d="M27.0503 21.3117L20.9225 17.7295L28.0001 14.2775L27.0503 21.3117Z" fill="white"/>
<path d="M35.0459 40.7531L41.2353 44.2278L34.219 47.8028L35.0459 40.7531Z" fill="white"/>
<path d="M40.5572 27.3756L44.4552 21.4437L47.532 28.6923L40.5572 27.3756Z" fill="white"/>
<path d="M40.4823 34.9018L47.5321 34.0749L43.9571 41.0912L40.4823 34.9018Z" fill="white"/>
<path d="M21.3997 35.0414L17.6058 41.0404L14.4029 33.8466L21.3997 35.0414Z" fill="white"/>
<path d="M21.4514 27.1469L14.5808 28.9462L17.148 21.4969L21.4514 27.1469Z" fill="white"/>
<path d="M46.5482 15.4517L45.1562 22.4119L39.588 16.8437L46.5482 15.4517Z" fill="white"/>
<path d="M15.4516 46.5483L16.8437 39.5881L22.4119 45.1562L15.4516 46.5483Z" fill="white"/>
<path d="M46.4516 46.4517L39.4914 45.0596L45.0596 39.4915L46.4516 46.4517Z" fill="white"/>
<path d="M15.2698 15.8267L22.23 17.2187L16.6619 22.7869L15.2698 15.8267Z" fill="white"/>
<path d="M46.5482 15.4517L45.1562 22.4119L39.588 16.8437L46.5482 15.4517Z" fill="white"/>
<path d="M15.4516 46.5483L16.8437 39.5881L22.4119 45.1562L15.4516 46.5483Z" fill="white"/>
<path d="M46.4516 46.4517L39.4914 45.0596L45.0596 39.4915L46.4516 46.4517Z" fill="white"/>
<path d="M15.2698 15.8267L22.23 17.2187L16.6619 22.7869L15.2698 15.8267Z" fill="white"/>
</svg>
